<?xml version="1.0" encoding="iso-8859-1"?>
<!-- Generator: Adobe Illustrator 19.0.0, SVG Export Plug-In . SVG Version: 6.00 Build 0)  -->
<svg version="1.1" id="Layer_1" xmlns="http://www.w3.org/2000/svg" xmlns:xlink="http://www.w3.org/1999/xlink" x="0px" y="0px"
	 viewBox="0 0 463 463" style="fill: #b32a40; enable-background:new 0 0 463 463;" xml:space="preserve">
<g>
	<g>
		<g>
			<path d="M407.5,0h-160c-6.177,0-11.801,2.399-16,6.31c-4.199-3.911-9.823-6.31-16-6.31h-160C42.542,0,32,10.542,32,23.5v416
				c0,12.958,10.542,23.5,23.5,23.5h160c6.177,0,11.801-2.399,16-6.31c4.199,3.911,9.823,6.31,16,6.31h160
				c12.958,0,23.5-10.542,23.5-23.5v-416C431,10.542,420.458,0,407.5,0z M224,32h-8.5c-4.142,0-7.5,3.358-7.5,7.5
				c0,4.142,3.358,7.5,7.5,7.5h8.5v369h-8.5c-4.142,0-7.5,3.358-7.5,7.5c0,4.142,3.358,7.5,7.5,7.5h8.5v8.5
				c0,4.687-3.813,8.5-8.5,8.5h-160c-4.687,0-8.5-3.813-8.5-8.5v-416c0-4.687,3.813-8.5,8.5-8.5h160c4.687,0,8.5,3.813,8.5,8.5V32z
				 M416,439.5c0,4.687-3.813,8.5-8.5,8.5h-160c-4.687,0-8.5-3.813-8.5-8.5V431h8.5c4.142,0,7.5-3.358,7.5-7.5
				c0-4.142-3.358-7.5-7.5-7.5H239V47h8.5c4.142,0,7.5-3.358,7.5-7.5c0-4.142-3.358-7.5-7.5-7.5H239v-8.5c0-4.687,3.813-8.5,8.5-8.5
				h160c4.687,0,8.5,3.813,8.5,8.5V439.5z"/>
			<path d="M190.942,134.57c-0.469-3.753-3.66-6.57-7.442-6.57h-96c-3.782,0-6.973,2.816-7.442,6.57l-8.064,64.515
				c-2.275,18.201,3.382,36.526,15.521,50.277c10.476,11.867,24.933,19.352,40.485,21.185V322.5c0,11.855-9.645,21.5-21.5,21.5
				c-4.142,0-7.5,3.358-7.5,7.5c0,4.142,3.358,7.5,7.5,7.5h58c4.142,0,7.5-3.358,7.5-7.5c0-4.142-3.358-7.5-7.5-7.5
				c-11.855,0-21.5-9.645-21.5-21.5v-51.953c15.552-1.833,30.01-9.318,40.485-21.185c12.139-13.751,17.796-32.077,15.521-50.277
				L190.942,134.57z M172.24,239.435C162.947,249.962,149.563,256,135.521,256h-0.041c-14.042,0-27.426-6.038-36.719-16.565
				c-4.282-4.851-7.496-10.449-9.562-16.435h92.604C179.735,228.986,176.522,234.584,172.24,239.435z M184.477,208H86.524
				c-0.047-2.343,0.059-4.7,0.353-7.055L94.121,143h82.759l7.243,57.945C184.417,203.3,184.524,205.657,184.477,208z"/>
			<path d="M371.5,56h-88C268.336,56,256,68.336,256,83.5s12.336,27.5,27.5,27.5h88c15.164,0,27.5-12.336,27.5-27.5
				S386.664,56,371.5,56z M371.5,96h-88c-6.893,0-12.5-5.607-12.5-12.5S276.607,71,283.5,71h88c6.893,0,12.5,5.607,12.5,12.5
				S378.393,96,371.5,96z"/>
			<path d="M375.5,143c4.142,0,7.5-3.358,7.5-7.5c0-4.142-3.358-7.5-7.5-7.5h-96c-4.142,0-7.5,3.358-7.5,7.5
				c0,4.142,3.358,7.5,7.5,7.5H375.5z"/>
			<path d="M256,207.5c0,4.142,3.358,7.5,7.5,7.5h112c4.142,0,7.5-3.358,7.5-7.5c0-4.142-3.358-7.5-7.5-7.5h-112
				C259.358,200,256,203.358,256,207.5z"/>
			<path d="M263.5,247h80c4.142,0,7.5-3.358,7.5-7.5c0-4.142-3.358-7.5-7.5-7.5h-80c-4.142,0-7.5,3.358-7.5,7.5
				C256,243.642,259.358,247,263.5,247z"/>
			<path d="M391.5,232h-16c-4.142,0-7.5,3.358-7.5,7.5c0,4.142,3.358,7.5,7.5,7.5h16c4.142,0,7.5-3.358,7.5-7.5
				C399,235.358,395.642,232,391.5,232z"/>
			<path d="M263.5,279h112c4.142,0,7.5-3.358,7.5-7.5c0-4.142-3.358-7.5-7.5-7.5h-112c-4.142,0-7.5,3.358-7.5,7.5
				C256,275.642,259.358,279,263.5,279z"/>
			<path d="M263.5,311h80c4.142,0,7.5-3.358,7.5-7.5c0-4.142-3.358-7.5-7.5-7.5h-80c-4.142,0-7.5,3.358-7.5,7.5
				C256,307.642,259.358,311,263.5,311z"/>
			<path d="M391.5,296h-16c-4.142,0-7.5,3.358-7.5,7.5c0,4.142,3.358,7.5,7.5,7.5h16c4.142,0,7.5-3.358,7.5-7.5
				C399,299.358,395.642,296,391.5,296z"/>
			<path d="M263.5,343h112c4.142,0,7.5-3.358,7.5-7.5c0-4.142-3.358-7.5-7.5-7.5h-112c-4.142,0-7.5,3.358-7.5,7.5
				C256,339.642,259.358,343,263.5,343z"/>
			<path d="M343.5,360h-80c-4.142,0-7.5,3.358-7.5,7.5c0,4.142,3.358,7.5,7.5,7.5h80c4.142,0,7.5-3.358,7.5-7.5
				C351,363.358,347.642,360,343.5,360z"/>
			<path d="M391.5,360h-16c-4.142,0-7.5,3.358-7.5,7.5c0,4.142,3.358,7.5,7.5,7.5h16c4.142,0,7.5-3.358,7.5-7.5
				C399,363.358,395.642,360,391.5,360z"/>
		</g>
	</g>
</g>
<g>
</g>
<g>
</g>
<g>
</g>
<g>
</g>
<g>
</g>
<g>
</g>
<g>
</g>
<g>
</g>
<g>
</g>
<g>
</g>
<g>
</g>
<g>
</g>
<g>
</g>
<g>
</g>
<g>
</g>
</svg>
